<svg width="14" height="14" viewBox="0 0 14 14" fill="none" xmlns="http://www.w3.org/2000/svg">
<path d="M3.97647 0.090929C4.31757 -0.00046888 4.71134 -0.000255658 5.2416 3.14777e-05L9.49418 6.39821e-05C10.0308 5.54785e-05 10.4737 4.84859e-05 10.8345 0.0295267C11.2093 0.0601435 11.5537 0.125853 11.8773 0.290713C12.3791 0.546376 12.787 0.954324 13.0427 1.45609C13.2075 1.77965 13.2732 2.12412 13.3039 2.49885C13.3333 2.85964 13.3333 3.30254 13.3333 3.83918V9.49428C13.3333 10.0309 13.3333 10.4738 13.3039 10.8346C13.2732 11.2093 13.2075 11.5538 13.0427 11.8774C12.787 12.3791 12.3791 12.7871 11.8773 13.0427C11.5537 13.2076 11.2093 13.2733 10.8345 13.3039C10.4737 13.3334 10.0308 13.3334 9.4942 13.3334L5.2416 13.3334C4.71134 13.3337 4.31757 13.3339 3.97647 13.2425C3.05622 12.996 2.33743 12.2772 2.09085 11.3569C1.99945 11.0158 1.99966 10.622 1.99995 10.0918V9.73341C1.99995 9.36005 1.99995 9.17336 2.07261 9.03075C2.13653 8.90531 2.23852 8.80333 2.36396 8.73941C2.50656 8.66675 2.69325 8.66675 3.06662 8.66675H4.02694C4.27401 8.66675 4.39755 8.66675 4.46751 8.70143C4.5445 8.73959 4.5715 8.76562 4.61247 8.84115C4.6497 8.90978 4.65581 9.07568 4.66803 9.40748C4.68596 9.89436 4.88077 10.3759 5.25245 10.7476C6.0335 11.5287 7.29983 11.5287 8.08088 10.7476L10.7475 8.08096C10.9393 7.88921 11.084 7.66821 11.1816 7.43231C11.2783 7.19918 11.3321 6.9438 11.3333 6.67598L11.3333 6.66675L11.3333 6.66023C11.3317 6.15056 11.1364 5.6414 10.7475 5.25253L8.08088 2.58587C7.29983 1.80482 6.0335 1.80482 5.25245 2.58587C4.88077 2.95755 4.68596 3.43913 4.66803 3.92601C4.65581 4.25781 4.6497 4.42371 4.61247 4.49235C4.5715 4.56788 4.5445 4.59391 4.46751 4.63207C4.39755 4.66675 4.27401 4.66675 4.02694 4.66675H3.06662C2.69325 4.66675 2.50656 4.66675 2.36396 4.59409C2.23852 4.53017 2.13653 4.42818 2.07261 4.30274C1.99995 4.16013 1.99995 3.97345 1.99995 3.60008V3.24168C1.99966 2.71142 1.99945 2.31765 2.09085 1.97655C2.33743 1.0563 3.05622 0.337508 3.97647 0.090929Z" fill="#8E8E93"/>
<path d="M6.19526 3.52868C6.45561 3.26833 6.87772 3.26833 7.13807 3.52868L9.80474 6.19534C10.0651 6.45569 10.0651 6.8778 9.80474 7.13815L7.13807 9.80482C6.87772 10.0652 6.45561 10.0652 6.19526 9.80482C5.93491 9.54447 5.93491 9.12236 6.19526 8.86201L7.72386 7.33341H0.666667C0.298477 7.33341 0 7.03494 0 6.66675C0 6.29856 0.298477 6.00008 0.666667 6.00008H7.72386L6.19526 4.47149C5.93491 4.21114 5.93491 3.78903 6.19526 3.52868Z" fill="#8E8E93"/>
</svg>
